<svg width="882" height="125" viewBox="0 0 882 125" fill="none" xmlns="http://www.w3.org/2000/svg">
<path d="M46.73 32.22H65.27L19.19 117H0.65L46.73 32.22Z" fill="#FFB800"/>
<path d="M77.73 32.22H96.27L50.19 117H31.65L77.73 32.22Z" fill="#0066FF"/>
<path d="M114.73 32.22H133.27L87.19 117H68.65L114.73 32.22Z" fill="#36C405"/>
<path d="M241.096 32.6L224.26 118H201.934L210.718 72.982L182.292 109.582H171.678L156.184 72.982L147.156 118H124.952L142.032 32.6H161.674L181.682 82.01L220.478 32.6H241.096ZM287.468 119.708C278.847 119.708 271.324 118.122 264.898 114.95C258.554 111.778 253.634 107.345 250.136 101.652C246.72 95.9587 245.012 89.452 245.012 82.132C245.012 72.372 247.249 63.588 251.722 55.78C256.277 47.972 262.58 41.872 270.632 37.48C278.766 33.088 287.997 30.892 298.326 30.892C306.948 30.892 314.43 32.478 320.774 35.65C327.2 38.822 332.12 43.2547 335.536 48.948C339.034 54.6413 340.782 61.148 340.782 68.468C340.782 78.228 338.505 87.012 333.95 94.82C329.477 102.628 323.174 108.728 315.04 113.12C306.988 117.512 297.798 119.708 287.468 119.708ZM289.542 99.7C294.91 99.7 299.628 98.358 303.694 95.674C307.761 92.99 310.892 89.4113 313.088 84.938C315.284 80.3833 316.382 75.3813 316.382 69.932C316.382 64.1573 314.593 59.562 311.014 56.146C307.517 52.6487 302.596 50.9 296.252 50.9C290.884 50.9 286.167 52.242 282.1 54.926C278.034 57.61 274.902 61.2293 272.706 65.784C270.51 70.2573 269.412 75.2187 269.412 80.668C269.412 86.4427 271.161 91.0787 274.658 94.576C278.237 97.992 283.198 99.7 289.542 99.7ZM376.37 119.708C369.294 119.708 362.584 118.854 356.24 117.146C349.896 115.438 344.732 113.242 340.746 110.558L350.262 92.502C354.573 95.2673 359.168 97.382 364.048 98.846C368.928 100.229 373.808 100.92 378.688 100.92C383.324 100.92 386.903 100.269 389.424 98.968C392.027 97.5853 393.328 95.7147 393.328 93.356C393.328 91.3227 392.149 89.7367 389.79 88.598C387.513 87.4593 383.934 86.2393 379.054 84.938C373.524 83.474 368.928 82.01 365.268 80.546C361.608 79.0007 358.436 76.6827 355.752 73.592C353.15 70.5013 351.848 66.4347 351.848 61.392C351.848 55.292 353.516 49.9647 356.85 45.41C360.185 40.774 364.943 37.1953 371.124 34.674C377.306 32.1527 384.544 30.892 392.84 30.892C398.94 30.892 404.634 31.5427 409.92 32.844C415.207 34.064 419.762 35.8533 423.584 38.212L414.8 56.146C411.466 54.0313 407.765 52.4453 403.698 51.388C399.713 50.2493 395.606 49.68 391.376 49.68C386.578 49.68 382.796 50.4527 380.03 51.998C377.346 53.5433 376.004 55.536 376.004 57.976C376.004 60.0907 377.184 61.7173 379.542 62.856C381.901 63.9947 385.561 65.2147 390.522 66.516C396.053 67.8987 400.608 69.322 404.186 70.786C407.846 72.25 410.978 74.4867 413.58 77.496C416.183 80.5053 417.484 84.45 417.484 89.33C417.484 95.3487 415.776 100.676 412.36 105.312C409.026 109.867 404.227 113.405 397.964 115.926C391.783 118.447 384.585 119.708 376.37 119.708ZM453.681 51.754H427.451L431.355 32.6H507.849L503.945 51.754H477.837L464.539 118H440.383L453.681 51.754ZM587.73 59.806C587.73 67.614 585.656 74.3647 581.508 80.058C577.36 85.67 571.545 89.7773 564.062 92.38L578.58 118H553.326L540.638 95.308H528.438L523.924 118H499.768L516.848 32.6H553.326C564.225 32.6 572.684 34.9993 578.702 39.798C584.721 44.5967 587.73 51.266 587.73 59.806ZM563.33 62.124C563.33 58.6267 562.151 56.024 559.792 54.316C557.434 52.5267 554.14 51.632 549.91 51.632H537.222L532.098 76.642H546.494C551.862 76.642 556.01 75.3813 558.938 72.86C561.866 70.3387 563.33 66.76 563.33 62.124ZM627.165 51.266L624.359 65.662H662.301L658.763 83.718H620.699L617.649 99.334H662.423L658.519 118H590.077L607.157 32.6H674.013L670.231 51.266H627.165ZM675.763 74.324H711.265L707.727 92.136H672.225L675.763 74.324ZM747.374 119.708C740.298 119.708 733.588 118.854 727.244 117.146C720.9 115.438 715.735 113.242 711.75 110.558L721.266 92.502C725.577 95.2673 730.172 97.382 735.052 98.846C739.932 100.229 744.812 100.92 749.692 100.92C754.328 100.92 757.907 100.269 760.428 98.968C763.031 97.5853 764.332 95.7147 764.332 93.356C764.332 91.3227 763.153 89.7367 760.794 88.598C758.517 87.4593 754.938 86.2393 750.058 84.938C744.527 83.474 739.932 82.01 736.272 80.546C732.612 79.0007 729.44 76.6827 726.756 73.592C724.153 70.5013 722.852 66.4347 722.852 61.392C722.852 55.292 724.519 49.9647 727.854 45.41C731.189 40.774 735.947 37.1953 742.128 34.674C748.309 32.1527 755.548 30.892 763.844 30.892C769.944 30.892 775.637 31.5427 780.924 32.844C786.211 34.064 790.765 35.8533 794.588 38.212L785.804 56.146C782.469 54.0313 778.769 52.4453 774.702 51.388C770.717 50.2493 766.609 49.68 762.38 49.68C757.581 49.68 753.799 50.4527 751.034 51.998C748.35 53.5433 747.008 55.536 747.008 57.976C747.008 60.0907 748.187 61.7173 750.546 62.856C752.905 63.9947 756.565 65.2147 761.526 66.516C767.057 67.8987 771.611 69.322 775.19 70.786C778.85 72.25 781.981 74.4867 784.584 77.496C787.187 80.5053 788.488 84.45 788.488 89.33C788.488 95.3487 786.78 100.676 783.364 105.312C780.029 109.867 775.231 113.405 768.968 115.926C762.787 118.447 755.589 119.708 747.374 119.708ZM831.61 51.266L828.804 65.662H866.746L863.208 83.718H825.144L822.094 99.334H866.868L862.964 118H794.522L811.602 32.6H878.458L874.676 51.266H831.61Z" fill="#EBE7D9"/>
</svg>
